<svg width="26" height="22" viewBox="0 0 26 22" fill="none" xmlns="http://www.w3.org/2000/svg">
<path d="M23.375 5.71906V2.125C23.375 1.66087 23.1906 1.21575 22.8624 0.887563C22.5343 0.559374 22.0891 0.375 21.625 0.375H2.375C1.91087 0.375 1.46575 0.559374 1.13756 0.887563C0.809374 1.21575 0.625 1.66087 0.625 2.125V16.125C0.625 16.5891 0.809374 17.0342 1.13756 17.3624C1.46575 17.6906 1.91087 17.875 2.375 17.875H14.625V20.5C14.6249 20.6492 14.663 20.796 14.7356 20.9264C14.8082 21.0567 14.9129 21.1664 15.0398 21.2449C15.1668 21.3233 15.3116 21.368 15.4607 21.3747C15.6098 21.3814 15.7581 21.3499 15.8916 21.2831L19 19.7278L22.1084 21.2831C22.2419 21.3499 22.3902 21.3814 22.5393 21.3747C22.6884 21.368 22.8332 21.3233 22.9602 21.2449C23.0871 21.1664 23.1918 21.0567 23.2644 20.9264C23.337 20.796 23.3751 20.6492 23.375 20.5V14.2809C24.4967 13.1384 25.1251 11.6012 25.1251 10C25.1251 8.39884 24.4967 6.86165 23.375 5.71906ZM12 11.75H5.875C5.64294 11.75 5.42038 11.6578 5.25628 11.4937C5.09219 11.3296 5 11.1071 5 10.875C5 10.6429 5.09219 10.4204 5.25628 10.2563C5.42038 10.0922 5.64294 10 5.875 10H12C12.2321 10 12.4546 10.0922 12.6187 10.2563C12.7828 10.4204 12.875 10.6429 12.875 10.875C12.875 11.1071 12.7828 11.3296 12.6187 11.4937C12.4546 11.6578 12.2321 11.75 12 11.75ZM12 8.25H5.875C5.64294 8.25 5.42038 8.15781 5.25628 7.99372C5.09219 7.82962 5 7.60706 5 7.375C5 7.14294 5.09219 6.92038 5.25628 6.75628C5.42038 6.59219 5.64294 6.5 5.875 6.5H12C12.2321 6.5 12.4546 6.59219 12.6187 6.75628C12.7828 6.92038 12.875 7.14294 12.875 7.375C12.875 7.60706 12.7828 7.82962 12.6187 7.99372C12.4546 8.15781 12.2321 8.25 12 8.25ZM21.625 19.0847L19.3916 17.9669C19.27 17.906 19.1359 17.8744 19 17.8744C18.8641 17.8744 18.73 17.906 18.6084 17.9669L16.375 19.0847V15.5333C17.1952 15.9229 18.0919 16.125 19 16.125C19.9081 16.125 20.8048 15.9229 21.625 15.5333V19.0847ZM19 14.375C18.1347 14.375 17.2888 14.1184 16.5694 13.6377C15.8499 13.1569 15.2892 12.4737 14.958 11.6742C14.6269 10.8748 14.5403 9.99515 14.7091 9.14648C14.8779 8.29781 15.2946 7.51826 15.9064 6.90641C16.5183 6.29455 17.2978 5.87787 18.1465 5.70906C18.9951 5.54025 19.8748 5.62689 20.6742 5.95803C21.4737 6.28916 22.1569 6.84992 22.6377 7.56938C23.1184 8.28885 23.375 9.13471 23.375 10C23.375 11.1603 22.9141 12.2731 22.0936 13.0936C21.2731 13.9141 20.1603 14.375 19 14.375Z" fill="black"/>
</svg>
