<svg width="51" height="33" viewBox="0 0 51 33" fill="none" xmlns="http://www.w3.org/2000/svg">
<g clip-path="url(#clip0_7_643)">
<path fill-rule="evenodd" clip-rule="evenodd" d="M0 25.5413C0.453342 25.3142 0.795731 24.9227 1.13484 24.5042C1.54861 23.9948 1.95391 23.5108 2.45605 23.0967C3.05779 22.6012 3.86259 22.127 4.87466 21.9768C4.67556 23.1353 4.57048 24.3259 4.56941 25.5413H0ZM3.40757 12.7709C3.91361 12.8017 4.40554 12.6342 4.90745 12.4423C5.51941 12.2086 6.11192 11.9932 6.75262 11.8864C7.52433 11.7587 8.46312 11.7528 9.41891 12.1366C7.90348 13.9573 6.68971 16.0395 5.85532 18.3067C5.05295 17.6685 4.59191 16.8532 4.31738 16.1215C4.08892 15.5108 3.97866 14.8882 3.87426 14.2394C3.78885 13.7066 3.68751 13.1955 3.40757 12.7709ZM12.7188 3.42199C13.1416 3.70293 13.6511 3.80464 14.1816 3.89036C14.8279 3.99536 15.4482 4.10579 16.0561 4.33531C16.7882 4.61189 17.604 5.07788 18.241 5.89033C15.9807 6.72421 13.9044 7.94082 12.0883 9.46003C11.7051 8.49941 11.7106 7.55571 11.8382 6.78015C11.9444 6.13676 12.1589 5.54212 12.3917 4.92773C12.5833 4.42378 12.7497 3.93008 12.7188 3.42199ZM25.4382 0V0.000688776L25.4389 0C25.6648 0.455587 26.0551 0.799439 26.4719 1.13962C26.9792 1.55526 27.4613 1.96224 27.8737 2.4662C28.3702 3.07423 28.8456 3.8886 28.9919 4.91388C27.8369 4.71513 26.6502 4.61013 25.4385 4.61013C24.2269 4.61013 23.0402 4.71513 21.8848 4.91411C22.0313 3.8886 22.5063 3.07423 23.0032 2.4662C23.4156 1.96224 23.8977 1.55526 24.405 1.13962C24.822 0.799439 25.2121 0.455587 25.4382 0ZM38.1574 3.42176V3.42245C38.1265 3.93031 38.2936 4.42362 38.4852 4.92773C38.7175 5.54212 38.9326 6.13676 39.0387 6.78015C39.1658 7.55549 39.1715 8.49918 38.7884 9.4598C36.9725 7.94059 34.896 6.72444 32.6359 5.8901C33.2729 5.07788 34.0885 4.61189 34.8206 4.33531C35.4287 4.10556 36.049 3.99513 36.6954 3.89013C37.2258 3.80464 37.735 3.7027 38.1574 3.42176ZM47.4689 12.7704C47.1892 13.1948 47.0881 13.7066 47.0027 14.2394C46.898 14.888 46.788 15.5108 46.5595 16.1213C46.285 16.853 45.824 17.6682 45.0214 18.3065C44.1874 16.0393 42.9734 13.9571 41.458 12.1364C42.414 11.7528 43.3524 11.7585 44.1243 11.8862C44.765 11.993 45.3575 12.2084 45.9694 12.442C46.4713 12.6342 46.9631 12.8015 47.4689 12.7704ZM46.002 21.9766C47.0141 22.127 47.8191 22.6009 48.4209 23.0967C48.923 23.5106 49.3283 23.9946 49.7422 24.5042C50.081 24.9224 50.4234 25.3142 50.8771 25.5413H46.3077C46.3064 24.3259 46.2011 23.1353 46.002 21.9766ZM31.5034 7.18523C39.1842 9.73248 44.7353 16.9847 44.7674 25.5418H40.9668C41.2187 18.067 37.9694 11.3203 31.5034 7.18523Z" fill="#FAB401"/>
<path fill-rule="evenodd" clip-rule="evenodd" d="M32.2747 25.5413H34.2498C34.3453 23.3865 34.1613 20.8336 33.467 18.6044C33.33 18.1646 33.173 17.7374 32.9951 17.3298C32.575 16.3666 32.0092 15.4945 31.3346 14.6886C30.5852 13.7936 29.6918 12.9885 28.6848 12.3544C28.3877 12.1671 28.0795 11.9945 27.7615 11.8385C27.4457 11.6834 27.1193 11.5446 26.7832 11.4248L26.7819 11.4242C22.9354 10.0531 19.0452 11.0282 15.7818 12.8106C15.1457 13.1579 14.5332 13.5358 13.9503 13.9328C13.3675 14.3296 12.8126 14.7463 12.2908 15.1713L12.2897 15.1722C11.6702 15.6768 10.8948 16.3668 10.1279 17.183C9.97688 17.3435 9.82772 17.5071 9.68268 17.6726C9.29423 18.1143 8.69631 18.7336 8.8736 19.3743C9.0143 19.8823 9.6669 19.7324 9.89452 19.5573C10.2434 19.3695 10.6268 19.0714 10.9548 18.7926C11.399 18.4152 11.8183 18.0089 12.2581 17.6261C14.0367 16.0781 15.8909 14.8843 17.7169 14.0762C18.115 13.9003 18.5134 13.7417 18.9105 13.6018C19.3063 13.462 19.7001 13.3412 20.0902 13.2395L20.092 13.239C23.49 12.3529 27.1824 12.9271 29.5465 15.7091C31.824 18.3892 32.2399 21.9766 32.2747 25.5413ZM7.76682 22.512C7.97889 22.3131 8.19523 22.0537 8.42072 21.7662C8.73589 21.3647 8.76746 20.9759 8.64316 20.6952C8.59664 20.5904 8.52794 20.5004 8.44474 20.4303C8.36238 20.3611 8.26485 20.3116 8.15962 20.2876C7.90256 20.2286 7.59517 20.3207 7.33453 20.6396C7.0395 21.0002 6.63175 21.6163 6.54856 22.1614C6.533 22.2637 6.52888 22.363 6.53948 22.4561C6.54963 22.547 6.57365 22.6331 6.61429 22.7116L6.61452 22.7127C6.68117 22.8407 6.79326 22.9079 6.9428 22.9136C6.97399 22.9146 7.0077 22.9133 7.04338 22.9092C7.07861 22.9055 7.11644 22.8986 7.15685 22.8891L7.15853 22.8889C7.36 22.8405 7.56124 22.7046 7.76682 22.512ZM28.2559 25.5413H30.2149C30.3079 23.219 29.9352 20.8204 28.8598 18.745C27.8817 16.8569 26.2646 15.5735 24.1713 15.2633C21.1155 14.8107 18.0318 16.1093 15.4251 17.9679C12.5867 19.9913 10.2438 22.7389 8.19637 25.5413L10.784 25.5379C13.1137 22.2224 18.4726 17.1892 22.4142 17.1563C23.6703 17.1457 24.9474 17.442 25.8917 18.2878C26.5761 18.9007 27.4055 20.091 27.3648 21.057C27.3409 21.63 26.8344 21.8055 26.3489 21.6282C25.9717 21.4903 25.7052 21.144 25.4413 20.7802C24.5836 19.5979 23.246 19.0193 21.7785 19.2209C20.0283 19.4613 17.8588 20.8256 16.4596 22.0665C15.2529 23.1368 14.1453 24.3083 13.1001 25.5413H15.8823C16.9021 24.3057 17.9788 23.2516 19.3629 22.3857C19.8012 22.1118 20.3406 21.8219 20.9076 21.6265C22.3379 21.1326 23.7613 21.2577 24.3931 23.0459C24.6417 23.7488 24.678 24.3654 24.6056 25.4956L24.6054 25.5413H26.4974L26.5022 25.4834C26.5037 24.8647 26.4903 24.4478 26.5459 23.8345C26.5936 23.3058 26.7572 22.7581 27.2462 22.6932C28.2852 22.4745 28.2353 24.7955 28.2559 25.5413ZM14.9204 31.5435H13.3831L13.0024 32.8886H11.7772L13.3982 27.7383H14.9509L16.6177 32.8886H15.3389L14.9204 31.5435ZM13.5582 30.6723H14.7378C14.4282 29.6664 14.2278 28.9761 14.1364 28.6017H14.1212L13.8778 29.5799L13.5582 30.6723ZM9.27387 31.5435H7.73655L7.35588 32.8886H6.13075L7.75173 27.7383H9.30415L10.9712 32.8886H9.69236L9.27387 31.5435ZM7.91163 30.6723H9.09101C8.78172 29.6664 8.58131 28.9761 8.49011 28.6017H8.47479L8.23138 29.5799L7.91163 30.6723ZM17.789 32.8655V27.8068C18.2963 27.7306 18.8393 27.6925 19.4178 27.6925C20.5113 27.6925 21.2964 27.9214 21.7722 28.3815C22.2475 28.8412 22.4851 29.4421 22.4851 30.1834C22.4851 31.0596 22.2149 31.7386 21.6732 32.22C21.1315 32.7014 20.2956 32.9419 19.1666 32.9419C18.6441 32.9419 18.1848 32.9166 17.789 32.8655ZM18.9688 28.6476V32.002C19.0348 32.0173 19.177 32.0252 19.3951 32.0252C19.9809 32.0252 20.4352 31.8696 20.756 31.5601C21.077 31.2507 21.2368 30.8075 21.2368 30.2294C21.2368 29.6994 21.0909 29.2958 20.798 29.0182C20.5051 28.7405 20.0825 28.6017 19.5319 28.6017C19.3011 28.6017 19.1134 28.6171 18.9688 28.6476ZM23.7476 27.7383H24.9275V29.7171H26.9442V27.7383H28.1238V32.8886H26.9442V30.7414H24.9275V32.8886H23.7476V27.7383ZM32.4007 31.5435H30.8634L30.4827 32.8886H29.2574L30.8783 27.7383H32.431L34.0976 32.8886H32.819L32.4007 31.5435ZM31.0385 30.6723H32.2178C31.9086 29.6664 31.7079 28.9761 31.6167 28.6017H31.6015L31.358 29.5799L31.0385 30.6723ZM38.0472 31.5435H36.5099L36.1292 32.8886H34.904L36.525 27.7383H38.0777L39.7442 32.8886H38.4657L38.0472 31.5435ZM36.6848 30.6723H37.8644C37.555 29.6664 37.3546 28.9761 37.2632 28.6017H37.2481L37.0044 29.5799L36.6848 30.6723ZM40.9158 32.8886V27.8068C41.3471 27.7306 41.8773 27.6925 42.5064 27.6925C43.2828 27.6925 43.8407 27.8209 44.1807 28.0782C44.5208 28.3355 44.6907 28.7037 44.6907 29.1824C44.6907 29.4677 44.6057 29.725 44.4345 29.9554C44.2633 30.186 44.0411 30.3491 43.7698 30.4433V30.4739C44.0895 30.5936 44.3204 30.9093 44.4623 31.4212C44.7235 32.3434 44.8657 32.8324 44.8886 32.8886H43.6861C43.5846 32.6976 43.4629 32.2976 43.3209 31.6889C43.2497 31.3832 43.1533 31.1693 43.0316 31.047C42.9097 30.9246 42.7145 30.8635 42.4454 30.8635H42.0803V32.8886H40.9158ZM42.0803 28.6017V30.0155H42.5673C42.8617 30.0155 43.0936 29.9478 43.2638 29.814C43.4336 29.6803 43.5188 29.5009 43.5188 29.2742C43.5188 29.0473 43.4425 28.8716 43.2891 28.7481C43.1356 28.6244 42.9175 28.5633 42.6359 28.5633C42.3591 28.5633 42.1741 28.5763 42.0803 28.6017ZM21.1944 25.5462L22.7645 25.5413C22.9708 24.2098 22.5674 23.1847 21.2259 23.429C20.0952 23.6353 18.8808 24.7629 18.1472 25.5413L20.2174 25.5322C20.4482 25.3799 20.8996 25.2064 21.085 25.3357C21.1544 25.3841 21.1907 25.4526 21.1944 25.5462ZM37.2152 25.5424L37.2295 25.5418H37.2366C37.4431 25.5533 37.8018 25.4576 38.0087 25.1072C38.0501 25.0371 38.0853 24.9571 38.1121 24.8663C38.1395 24.7738 38.1585 24.6688 38.1663 24.551L38.168 24.5268C38.325 19.0187 36.6447 14.4591 33.7923 11.361C33.2383 10.7597 32.6389 10.2126 32.0001 9.72383C31.3616 9.23572 30.684 8.80638 29.9726 8.44064L29.9614 8.43498C27.5636 7.20475 24.844 6.73202 22.1747 6.95916C21.6542 7.00339 21.1365 7.07388 20.6253 7.17046C20.1127 7.26674 19.6041 7.39003 19.1035 7.53834L19.0966 7.54056C16.3513 8.35577 13.7972 9.97393 11.7154 12.0973C11.3099 12.511 10.9228 12.9435 10.5561 13.392C10.3739 13.6148 10.1965 13.8419 10.0246 14.0725C11.4845 12.808 13.0504 11.6988 14.6887 10.8174C15.0577 10.6189 15.4288 10.4325 15.8008 10.2596C16.1734 10.0865 16.5511 9.92487 16.932 9.7761L16.9333 9.77564L16.9343 9.77518C18.3815 9.21054 19.8082 8.85023 21.2352 8.68921C22.6624 8.52827 24.0903 8.56669 25.5403 8.79811C26.5724 8.96304 27.5795 9.23419 28.4869 9.61385C28.6629 9.68717 28.8363 9.76569 29.0059 9.84811C29.1733 9.92947 29.338 10.0165 29.4994 10.1078L29.5022 10.1091C32.6969 11.8654 34.9164 15.4698 35.8938 19.5391C36.0845 20.3327 36.228 21.1433 36.3222 21.9599C36.4163 22.7765 36.4615 23.6015 36.4558 24.4254L36.4554 24.473C36.4716 24.9139 36.6221 25.2825 36.8798 25.4485C36.9279 25.4793 36.9798 25.5034 37.0352 25.519C37.0915 25.5351 37.1519 25.5431 37.2152 25.5424Z" fill="#D32828"/>
</g>
<defs>
<clipPath id="clip0_7_643">
<rect width="51" height="33" fill="white"/>
</clipPath>
</defs>
</svg>
