<svg width="105" height="24" viewBox="0 0 105 24" fill="none" xmlns="http://www.w3.org/2000/svg">
<g clip-path="url(#clip0_7_1772)">
<path d="M30.8292 4.91025V7.39502H35.6154V10.2306H30.8292V14.9619H27.8839V2.07465H35.7078V4.91025H30.8292Z" fill="#333333"/>
<path d="M37.3653 1.52313H40.1273V14.9619H37.3653V1.52313Z" fill="#333333"/>
<path d="M51.5967 5.75778V14.9634H48.8347V14.0986C48.2269 14.7988 47.3245 15.2218 46.0915 15.2218C43.6804 15.2218 41.6909 13.1052 41.6909 10.362C41.6909 7.61883 43.679 5.50223 46.0915 5.50223C47.3245 5.50223 48.2269 5.92526 48.8347 6.6255V5.76067H51.5967V5.75778ZM48.8347 10.3606C48.8347 8.98032 47.9136 8.11405 46.6445 8.11405C45.3754 8.11405 44.4543 8.97888 44.4543 10.3606C44.4543 11.7423 45.3754 12.6071 46.6445 12.6071C47.9136 12.6071 48.8347 11.7423 48.8347 10.3606Z" fill="#333333"/>
<path d="M53.3466 3.29035C53.3466 2.38798 54.1017 1.63287 55.0041 1.63287C55.9065 1.63287 56.6616 2.38798 56.6616 3.29035C56.6616 4.19272 55.9065 4.94782 55.0041 4.94782C54.1017 4.94782 53.3466 4.19272 53.3466 3.29035ZM53.6224 5.75779H56.3844V14.9634H53.6224V5.75779Z" fill="#333333"/>
<path d="M63.9325 5.57297V8.70311C62.7904 8.51975 61.1705 8.97887 61.1705 10.8024V14.9634H58.4085V5.75777H61.1705V7.39648C61.5386 6.16348 62.7716 5.57441 63.9325 5.57441V5.57297Z" fill="#333333"/>
<path d="M72.8609 14.0422V14.9634H65.8094V2.07465H66.7854V14.0422H72.8609Z" fill="#333333"/>
<path d="M83.2821 5.75776V14.9634H82.3437V12.8829C81.5698 14.2631 80.1534 15.1655 78.3848 15.1655C75.7701 15.1655 73.616 13.085 73.616 10.3606C73.616 7.63614 75.7701 5.55563 78.3848 5.55563C80.152 5.55563 81.5698 6.458 82.3437 7.83827V5.75776H83.2821ZM82.3437 10.3606C82.3437 8.17034 80.6501 6.43923 78.4584 6.43923C76.2668 6.43923 74.5559 8.17034 74.5559 10.3606C74.5559 12.5508 76.2682 14.2819 78.4584 14.2819C80.6487 14.2819 82.3437 12.5508 82.3437 10.3606Z" fill="#333333"/>
<path d="M95.7652 10.3591C95.7652 13.0836 93.6298 15.1641 90.9963 15.1641C89.2104 15.1641 87.7926 14.2429 87.0375 12.8266V14.9619H86.1163V2.07465H87.0375V7.89313C87.7926 6.47532 89.2104 5.55563 90.9963 5.55563C93.6284 5.55563 95.7652 7.63613 95.7652 10.3606V10.3591ZM94.844 10.3591C94.844 8.16889 93.1317 6.43778 90.9415 6.43778C88.7512 6.43778 87.0389 8.16889 87.0389 10.3591C87.0389 12.5494 88.7512 14.2805 90.9415 14.2805C93.1317 14.2805 94.844 12.5494 94.844 10.3591Z" fill="#333333"/>
<path d="M104.012 12.5508C104.012 14.061 102.687 15.1655 100.717 15.1655C98.8765 15.1655 97.6609 14.3007 97.2191 13.1226L98.0103 12.662C98.3423 13.6568 99.3357 14.2819 100.716 14.2819C102.005 14.2819 103.091 13.7116 103.091 12.5508C103.091 10.0473 97.5121 11.4824 97.5121 8.16891C97.5121 6.71501 98.7639 5.5542 100.642 5.5542C102.134 5.5542 103.274 6.27176 103.772 7.39503L102.999 7.83683C102.612 6.8796 101.654 6.4378 100.642 6.4378C99.4454 6.4378 98.4333 7.06441 98.4333 8.16891C98.4333 10.6363 104.012 9.181 104.012 12.5508Z" fill="#333333"/>
<path d="M64.24 20.7588H62.057L61.634 21.8662H61.286L62.9781 17.5117H63.3261L65.0124 21.8662H64.6645L64.2415 20.7588H64.24ZM64.1216 20.4484L63.1514 17.916L62.1812 20.4484H64.1216Z" fill="#333333"/>
<path d="M68.8428 20.3112C68.8428 21.2323 68.1209 21.9355 67.2315 21.9355C66.628 21.9355 66.1487 21.625 65.8946 21.1457V23.1122H65.5842V18.7577H65.8946V19.4796C66.1501 19.0002 66.628 18.6898 67.2315 18.6898C68.1209 18.6898 68.8428 19.3929 68.8428 20.3141V20.3112ZM68.5324 20.3112C68.5324 19.5705 67.9534 18.9858 67.2128 18.9858C66.4721 18.9858 65.8931 19.5705 65.8931 20.3112C65.8931 21.0519 66.4721 21.6366 67.2128 21.6366C67.9534 21.6366 68.5324 21.0519 68.5324 20.3112Z" fill="#333333"/>
<path d="M72.8551 20.3112C72.8551 21.2323 72.1332 21.9355 71.2439 21.9355C70.6404 21.9355 70.161 21.625 69.9069 21.1457V23.1122H69.5965V18.7577H69.9069V19.4796C70.1625 19.0002 70.6404 18.6898 71.2439 18.6898C72.1332 18.6898 72.8551 19.3929 72.8551 20.3141V20.3112ZM72.5447 20.3112C72.5447 19.5705 71.9658 18.9858 71.2251 18.9858C70.4844 18.9858 69.9055 19.5705 69.9055 20.3112C69.9055 21.0519 70.4844 21.6366 71.2251 21.6366C71.9658 21.6366 72.5447 21.0519 72.5447 20.3112Z" fill="#333333"/>
<path d="M73.6073 17.3254H73.9177V21.8676H73.6073V17.3254Z" fill="#333333"/>
<path d="M74.7826 17.7542C74.7826 17.6243 74.8952 17.5117 75.0309 17.5117C75.1666 17.5117 75.2793 17.6243 75.2793 17.7542C75.2793 17.8842 75.1666 18.0026 75.0309 18.0026C74.8952 18.0026 74.7826 17.89 74.7826 17.7542ZM74.8764 18.7562H75.1869V21.8676H74.8764V18.7562Z" fill="#333333"/>
<path d="M79.0822 20.3242C79.0822 20.3733 79.0764 20.4238 79.0764 20.4729H76.2581C76.3332 21.176 76.8674 21.6366 77.5777 21.6366C78.0874 21.6366 78.4743 21.3998 78.6534 21.0706L78.9277 21.2324C78.6721 21.6554 78.187 21.9355 77.572 21.9355C76.6133 21.9355 75.9362 21.2511 75.9362 20.3112C75.9362 19.3713 76.596 18.687 77.5474 18.687C78.4989 18.687 79.0836 19.4709 79.0836 20.3228L79.0822 20.3242ZM76.2581 20.1683H78.7588C78.6909 19.4088 78.1553 18.9858 77.546 18.9858C76.8371 18.9858 76.3202 19.4767 76.2581 20.1683Z" fill="#333333"/>
<path d="M82.8634 17.5117V21.8662H82.553V21.1443C82.2975 21.6236 81.8196 21.934 81.2161 21.934C80.3267 21.934 79.6048 21.2309 79.6048 20.3097C79.6048 19.3886 80.3267 18.6855 81.2161 18.6855C81.8196 18.6855 82.2989 18.9959 82.553 19.4752V17.5088H82.8634V17.5117ZM82.553 20.3112C82.553 19.5705 81.9741 18.9858 81.2334 18.9858C80.4927 18.9858 79.9138 19.5705 79.9138 20.3112C79.9138 21.0519 80.4927 21.6366 81.2334 21.6366C81.9741 21.6366 82.553 21.0519 82.553 20.3112Z" fill="#333333"/>
<path d="M89.2334 19.6889C89.2334 20.8902 88.3816 21.8662 87.1804 21.8662H85.5446V17.5117H87.1804C88.3816 17.5117 89.2334 18.4891 89.2334 19.6889ZM88.91 19.6889C88.91 18.6566 88.2069 17.8221 87.1804 17.8221H85.8737V21.5543H87.1804C88.2069 21.5543 88.91 20.7212 88.91 19.6875V19.6889Z" fill="#333333"/>
<path d="M89.912 17.7542C89.912 17.6243 90.0247 17.5117 90.1604 17.5117C90.2961 17.5117 90.4087 17.6243 90.4087 17.7542C90.4087 17.8842 90.2961 18.0026 90.1604 18.0026C90.0247 18.0026 89.912 17.89 89.912 17.7542ZM90.0059 18.7562H90.3163V21.8676H90.0059V18.7562Z" fill="#333333"/>
<path d="M94.3474 18.7563V21.7175C94.3474 22.6502 93.6572 23.18 92.7982 23.18C92.0705 23.18 91.5536 22.8869 91.3299 22.4336L91.6042 22.2777C91.7659 22.6068 92.1138 22.8812 92.7982 22.8812C93.5764 22.8812 94.037 22.4264 94.037 21.7175V21.1457C93.7814 21.6251 93.3021 21.9355 92.7 21.9355C91.8106 21.9355 91.0887 21.2324 91.0887 20.3112C91.0887 19.3901 91.8106 18.687 92.7 18.687C93.3035 18.687 93.7829 18.9974 94.037 19.4767V18.7548H94.3474V18.7563ZM94.037 20.3112C94.037 19.5706 93.458 18.9858 92.7173 18.9858C91.9767 18.9858 91.3977 19.5706 91.3977 20.3112C91.3977 21.0519 91.9767 21.6366 92.7173 21.6366C93.458 21.6366 94.037 21.0519 94.037 20.3112Z" fill="#333333"/>
<path d="M95.2122 17.7542C95.2122 17.6243 95.3248 17.5117 95.4605 17.5117C95.5963 17.5117 95.7089 17.6243 95.7089 17.7542C95.7089 17.8842 95.5963 18.0026 95.4605 18.0026C95.3248 18.0026 95.2122 17.89 95.2122 17.7542ZM95.3061 18.7562H95.6165V21.8676H95.3061V18.7562Z" fill="#333333"/>
<path d="M97.2393 19.0609V21.0822C97.2393 21.6294 97.5324 21.6424 98.1662 21.5861V21.8662C97.3519 21.9903 96.9217 21.7911 96.9217 21.0822V19.0609H96.2373V18.7562H96.9217V17.978L97.2393 17.8842V18.7548H98.1662V19.0594H97.2393V19.0609Z" fill="#333333"/>
<path d="M101.781 18.7563V21.8676H101.464V21.1645C101.203 21.6308 100.723 21.9355 100.127 21.9355C99.2433 21.9355 98.5156 21.2324 98.5156 20.3112C98.5156 19.3901 99.2433 18.687 100.127 18.687C100.725 18.687 101.203 18.9916 101.464 19.4579V18.7548H101.781V18.7563ZM101.464 20.3112C101.464 19.5706 100.892 18.9858 100.151 18.9858C99.4108 18.9858 98.8318 19.5706 98.8318 20.3112C98.8318 21.0519 99.4108 21.6366 100.151 21.6366C100.892 21.6366 101.464 21.0519 101.464 20.3112Z" fill="#333333"/>
<path d="M102.739 17.3254H103.049V21.8676H102.739V17.3254Z" fill="#333333"/>
<path d="M58.7334 19.1735H27.7352V21.332H58.7334V19.1735Z" fill="#333333"/>
<path d="M21.0317 3.27878L20.0196 8.03608C19.7308 9.39324 18.3968 10.4934 17.0396 10.4934H15.8745L16.1878 9.01786C16.3625 8.19923 16.1964 7.42391 15.7214 6.83773C15.258 6.26455 14.5606 5.9498 13.7593 5.9498H5.83434C5.43008 5.9498 5.03015 6.02921 4.65332 6.17359L5.26982 3.27878C5.55858 1.92018 6.89264 0.820007 8.2498 0.820007H19.0956C20.4527 0.820007 21.319 1.92018 21.0317 3.27878Z" fill="#333333"/>
<path d="M14.936 7.473C14.6674 7.14237 14.2502 6.96045 13.7593 6.96045H5.83433C5.32468 6.96045 4.8078 7.15969 4.37611 7.4831H4.37466C3.86789 7.86426 3.47662 8.41579 3.34813 9.01785L2.73163 11.9228C2.99584 11.8535 3.26727 11.8174 3.54159 11.8174H8.29888C9.10163 11.8174 9.79898 12.1321 10.2624 12.7053C10.7374 13.2915 10.9035 14.0668 10.7288 14.8854L10.5714 15.6232H11.7019C12.8136 15.6232 13.9513 14.6804 14.1881 13.5658L14.8421 10.4934L15.2002 8.80706C15.3099 8.29307 15.2161 7.81951 14.936 7.473Z" fill="#3DA796"/>
<path d="M8.29891 12.828H3.54162C3.18068 12.828 2.8154 12.9277 2.48044 13.1024C2.26387 13.2121 2.05885 13.355 1.87549 13.5225C1.63582 13.7362 1.43225 13.9917 1.28354 14.2718C1.17814 14.4667 1.10017 14.6732 1.05542 14.8854L0.0447643 19.6427C-0.0649638 20.1582 0.0288826 20.6317 0.308978 20.9768C0.577523 21.3089 0.994778 21.4908 1.48567 21.4908H6.24296C7.35323 21.4908 8.49238 20.548 8.72916 19.4334L9.324 16.6339L9.43229 16.1285L9.53913 15.6232L9.74126 14.6746C9.85099 14.1607 9.75714 13.6871 9.47705 13.3406C9.2085 13.01 8.79125 12.828 8.29891 12.828Z" fill="#333333"/>
</g>
<defs>
<clipPath id="clip0_7_1772">
<rect width="104.012" height="22.36" fill="white" transform="translate(0 0.820007)"/>
</clipPath>
</defs>
</svg>
